Coordinates
version=1
nRows=19
nColumns=34
inDegrees=yes

Units are S.I. units (second, meters, Newtons, ...)
If the header above contains a line with 'inDegrees', this indicates whether rotational values are in degrees (yes) or radians (no).

endheader
time	pelvis_tilt	pelvis_list	pelvis_rotation	pelvis_tx	pelvis_ty	pelvis_tz	hip_flexion_r	hip_adduction_r	hip_rotation_r	knee_angle_r	ankle_angle_r	subtalar_angle_r	mtp_angle_r	hip_flexion_l	hip_adduction_l	hip_rotation_l	knee_angle_l	ankle_angle_l	subtalar_angle_l	mtp_angle_l	lumbar_extension	lumbar_bending	lumbar_rotation	arm_flex_r	arm_add_r	arm_rot_r	elbow_flex_r	pro_sup_r	arm_flex_l	arm_add_l	arm_rot_l	elbow_flex_l	pro_sup_l
      1.90000000	     -3.46002005	      5.51811053	      0.09535280	      0.07309357	      0.86320285	      0.08338658	      0.18760932	      3.23642455	      6.15884509	     10.58134733	      8.97876695	     -8.82948306	      0.00000000	     26.01479681	     -1.00591787	     -6.33103727	      8.94659409	    -10.98019154	    -14.54092207	      0.00000000	     -5.94321542	     -6.41336271	      7.66196876	     88.82594522	     10.30912442	     67.55674274	    117.28298894	    110.69139615	     74.88838043	      7.97031045	     62.48692007	    136.19155976	     98.59579372
      1.91666670	     -3.30108799	      5.71399862	     -0.07226063	      0.07484203	      0.86599305	      0.08394490	      0.30461706	      3.03161220	      5.99601889	     11.04952870	      8.95352812	     -8.79468586	      0.00000000	     26.03467873	     -1.01779274	     -6.13065769	      8.92187217	    -10.61721181	    -14.51884811	      0.00000000	     -6.11661384	     -6.54489031	      7.73807660	     88.83252889	     10.39905975	     67.55262333	    117.32817515	    110.70003186	     74.75824325	      7.64060403	     62.27711369	    135.82492082	     98.58382793
      1.93333330	     -3.18742012	      5.82554841	     -0.04693660	      0.07263681	      0.86182982	      0.08368470	      0.28123916	      3.02455949	      5.64998060	     11.74973057	      8.00939659	     -8.45475674	      0.00000000	     26.27415995	     -0.99651801	     -6.34264195	      8.95781752	    -10.56845880	    -14.48871061	      0.00000000	     -6.19986417	     -6.68443787	      7.56924273	     88.89710627	     10.24707507	     67.56175584	    117.19542138	    110.70830010	     74.77529257	      7.75228520	     62.06951825	    135.69393261	     98.56884796
      1.95000000	     -2.98610749	      5.97754617	     -0.03671473	      0.07374236	      0.86109256	      0.08413709	      0.48329613	      2.95530464	      5.31620848	     12.44920605	      7.81048032	     -8.36099976	      0.00000000	     26.46802821	     -1.06687246	     -6.26663749	      9.35526990	    -10.28169715	    -14.39593224	      0.00000000	     -6.28634361	     -6.83322563	      7.56655974	     89.12431691	     10.15677889	     67.59198167	    117.19041715	    110.71347477	     74.69139078	      7.87933614	     62.00215096	    135.64718570	     98.56056281
      1.96666670	     -2.95481785	      5.66962741	     -0.01862198	      0.07290256	      0.86445789	      0.08378843	      1.25300335	      3.29810703	      4.62196519	     13.46553600	      8.00917132	     -8.15063309	      0.00000000	     27.18127253	     -1.56084989	     -6.05941201	     10.07730256	     -9.28069404	    -13.53869759	      0.00000000	     -6.58165123	     -6.48005259	      7.76880013	     89.53409495	      9.84251254	     67.85963163	    116.89214583	    110.71327903	     74.63389787	      8.32934457	     62.03770773	    135.48808077	     98.52899299
      1.98333330	     -2.57833102	      5.68545216	     -0.10324898	      0.07276526	      0.86223067	      0.08398011	      1.41644393	      3.32298582	      4.55394725	     14.60645587	      7.73671560	     -8.08414238	      0.00000000	     27.33385898	     -1.80418674	     -6.21221614	     10.44605825	     -9.25601498	    -13.51493307	      0.00000000	     -6.93933106	     -6.40582682	      7.41383498	     89.21855973	      9.68929480	     68.09233206	    116.80419748	    110.71530685	     74.45610808	      8.48436400	     62.25700516	    135.56489880	     98.53159778
      2.00000000	     -2.60402931	      5.53524719	     -0.07587610	      0.07278148	      0.86154312	      0.08372627	      2.26909836	      3.48526630	      4.20217687	     16.30587227	      8.24482843	     -7.99032816	      0.00000000	     28.21354825	     -2.31325866	     -6.68554778	     11.22380644	     -8.67481542	    -12.90428377	      0.00000000	     -6.96327295	     -6.12970388	      7.29334249	     89.30263736	      9.52459238	     68.59508009	    116.02859358	    110.65699347	     74.92887263	      8.43426192	     62.80815837	    135.93997432	     98.49989703
      2.01666670	     -2.16009193	      5.42317128	     -0.06370241	      0.07394069	      0.86652407	      0.08456897	      2.42040647	      3.58933677	      4.03139771	     17.73153049	      7.83659010	     -7.86659794	      0.00000000	     28.33508067	     -2.77096630	     -7.03892235	     11.35885298	     -8.92025078	    -12.77802367	      0.00000000	     -7.52141204	     -5.94439438	      6.86740661	     88.87678870	      9.28399044	     68.87135255	    115.90159466	    110.65400039	     74.73011671	      8.72217750	     63.02868007	    136.16725232	     98.50604747
      2.03333330	     -1.89337905	      5.17904514	     -0.07749936	      0.07260110	      0.85680741	      0.08295660	      3.52970037	      3.87076363	      3.86387987	     20.07282339	      9.15544213	     -7.65735840	      0.00000000	     28.95719121	     -3.45625334	     -7.39822628	     11.85841938	     -8.50407440	    -11.93911775	      0.00000000	     -8.05485257	     -5.46136154	      6.49079717	     89.15118135	      9.40921697	     68.98845933	    115.64092608	    110.57497763	     75.26996071	      8.58898566	     63.04053415	    136.92287518	     98.48725072
      2.05000000	     -1.43579989	      4.82416712	      0.03703803	      0.07262085	      0.85385402	      0.08342653	      4.62983062	      4.23103733	      3.51426048	     22.53685066	     10.32127678	     -8.06581216	      0.00000000	     29.38763947	     -4.16740213	     -7.51338135	     12.06033586	     -8.23587080	    -11.17037302	      0.00000000	     -8.82977279	     -4.86996429	      6.21310593	     89.56018959	      9.51586263	     68.86798394	    115.10454015	    110.47241435	     75.51824918	      8.57652585	     62.93206149	    137.19335593	     98.47495444
      2.06666670	     -0.99130933	      4.41318438	      0.08397101	      0.07336536	      0.85087441	      0.08399926	      5.62968952	      4.77609294	      3.56521368	     24.82956556	     12.05694586	     -8.50952653	      0.00000000	     29.89102221	     -4.99016765	     -7.23187170	     12.18434915	     -7.48316490	    -10.42446590	      0.00000000	     -9.57842954	     -4.23186157	      5.84413639	     89.88042647	      9.78068214	     68.84816531	    115.01687748	    110.34699387	     75.76470188	      8.27689289	     63.33402896	    137.39369542	     98.50579550
      2.08333330	     -0.47803320	      4.16513714	      0.13708273	      0.07322764	      0.84843306	      0.08319442	      6.08041179	      5.15259829	      3.75445377	     26.81177087	     13.85965087	     -9.14765319	      0.00000000	     30.39930420	     -5.64493336	     -7.03871652	     12.16383262	     -7.38601003	     -9.92178122	      0.00000000	    -10.36460810	     -3.75209703	      5.60367006	     90.10512322	      9.83317549	     68.75552890	    115.11660631	    110.29214558	     76.14241049	      8.02203079	     63.25970151	    137.40348531	     98.51655400
      2.10000000	      0.01951267	      3.90909962	      0.06074814	      0.07252364	      0.84330842	      0.08303141	      6.53904823	      5.58128002	      4.12723784	     29.07423950	     15.50305764	     -9.14042022	      0.00000000	     31.13257917	     -6.42106925	     -7.03596789	     12.44944564	     -6.61451913	     -9.07820155	      0.00000000	    -11.30007648	     -3.43145839	      5.35905720	     91.12093586	     10.10859493	     68.62825263	    115.09174740	    110.19069469	     77.09535318	      8.03581176	     63.20864382	    137.87432748	     98.56279752
      2.11666670	      0.75529995	      3.63722313	     -0.18868119	      0.07267535	      0.83969726	      0.08162774	      6.43765423	      6.07609720	      4.72198425	     31.13029061	     17.21149507	     -9.49058554	      0.00000000	     31.46129449	     -7.25513339	     -6.59418489	     12.17645191	     -6.28990500	     -8.57158476	      0.00000000	    -12.31260107	     -2.96660894	      4.92283174	     91.12391884	     10.09494763	     68.97421531	    115.36083326	    110.16834055	     76.83351385	      7.55318577	     63.26218248	    137.76605213	     98.57796160
      2.13333330	      1.76543844	      3.33382263	     -0.51455231	      0.07477687	      0.83453291	      0.08115469	      6.55098911	      6.57923517	      4.98556654	     33.48005851	     19.28167955	     -9.59803198	      0.00000000	     31.43039662	     -8.16791967	     -6.71396988	     11.99195210	     -5.41054837	     -7.45766980	      0.00000000	    -13.94653685	     -2.34594951	      4.28810275	     92.15142288	     10.48763161	     69.83893062	    115.35397319	    109.99684979	     77.06189987	      6.85626695	     63.42187801	    138.06277868	     98.66278543
      2.15000000	      2.76780748	      3.02704271	     -0.51868636	      0.07383533	      0.82794653	      0.08133378	      6.95574337	      7.10097380	      4.72661455	     36.16115214	     20.21489430	    -10.39900941	      0.00000000	     31.52098665	     -8.85209521	     -6.06618975	     11.76166245	     -5.11783143	     -7.15859520	      0.00000000	    -15.13440384	     -1.75667504	      4.09703728	     91.78145113	     10.84539328	     70.17504294	    115.77742146	    109.95951083	     76.43244941	      6.92860462	     64.35458959	    138.11296660	     98.74763286
      2.16666670	      3.57476361	      2.62984706	     -0.30700366	      0.06962869	      0.82076223	      0.08281540	      8.10591144	      7.91147108	      4.50842299	     39.02169725	     21.45471306	    -11.51201582	      0.00000000	     31.95994146	     -9.57575333	     -5.45643826	     11.44028230	     -4.68363762	     -6.78349195	      0.00000000	    -16.58373717	     -1.03606551	      4.19873768	     92.54007187	     10.82499606	     70.43756168	    115.08012501	    109.66396302	     77.32621624	      6.80188320	     66.90610042	    137.48012099	     99.09123437
      2.18333330	      4.39992043	      2.37002888	     -0.11307240	      0.07080157	      0.81384907	      0.08180173	      9.09363466	      8.45264684	      4.11076247	     42.14732291	     22.96167103	    -12.61285343	      0.00000000	     32.43542417	    -10.15548916	     -4.86617764	     11.13158570	     -4.75059903	     -6.70476638	      0.00000000	    -17.97415876	     -0.66385544	      3.85104095	     92.49759754	     10.59850817	     70.52514191	    114.94098670	    109.51987135	     77.50694811	      6.30956168	     67.05447263	    136.52285938	     99.17095284
      2.20000000	      5.27932640	      2.11993623	      0.00603828	      0.06977957	      0.80970543	      0.08220183	      9.88180102	      9.01020154	      3.78034180	     45.05860261	     24.45566569	    -13.08847323	      0.00000000	     32.93162576	    -10.67796947	     -4.60698070	     10.96215339	     -4.95094854	     -6.68093709	      0.00000000	    -19.40976791	     -0.10755355	      3.92507506	     92.74285739	     10.43886629	     70.80251097	    114.73960940	    109.29927703	     77.84639956	      5.97993503	     67.82304067	    134.78314164	     99.26227029
